# xmcd
#
# Track frame offsets:
#	150
#	41892
#	67895
#	88195
#	99337
#	111980
#	138062
#	166160
#	196710
#	217267
#	236890
#	266942
#	294377
#	311847
#	343737
#
# Disc length: 4800
#
# Revision: 1
# Processed by: cddbd v1.5.1PL0 Copyright (c) Steve Scherf et al.
# Submitted via: CDex 1.51
# Normalized: r0:TDELIM( - )
#
DISCID=e612be0f
DTITLE=Various Artist - Blue Note for Apres-midi Grand Cru
DYEAR=2004
DGENRE=Jazz
TTITLE0=Herbie Hancock - Dolphin Dance
TTITLE1=Bobby Hutcherson - Maiden Voyage
TTITLE2=Duke Pearson - I Love You
TTITLE3=Sheila Jordan - Falling in Love with Love
TTITLE4=Duke Pearson - Lamento
TTITLE5=Grant Green - Cease The Bombing
TTITLE6=Duke Pearson - Los Ojos Alegres (The Happy Eyes)
TTITLE7=Bobby Hutcherson - A Night in Barcelona
TTITLE8=Andrew Hill - Alfred
TTITLE9=Herbie Hancock - Mimosa
TTITLE10=Wayne Shorter - Dance Cadaverous
TTITLE11=Bobby Hutcherson - Effi
TTITLE12=Horace Silver - Won't You Open Up Your Senses
TTITLE13=Grand Green - Wives And Lovers
TTITLE14=Duke Pearson - It Could Only Happen with You
EXTD=YEAR: 2004
EXTT0=
EXTT1=
EXTT2=
EXTT3=
EXTT4=
EXTT5=
EXTT6=
EXTT7=
EXTT8=
EXTT9=
EXTT10=
EXTT11=
EXTT12=
EXTT13=
EXTT14=
PLAYORDER=
